<svg width="48" height="48" viewBox="0 0 48 48" fill="none" xmlns="http://www.w3.org/2000/svg">
<rect width="48" height="48" rx="24" fill="#FFB703"/>
<path d="M35.9142 35.056C36.1062 35.416 36.2022 35.728 36.2022 35.992C36.2262 36.232 36.1542 36.46 35.9862 36.676C35.8182 36.868 35.5542 37.048 35.1942 37.216C34.6182 37.48 34.1622 37.54 33.8262 37.396C33.5142 37.252 33.2262 36.904 32.9622 36.352L23.9622 17.2L15.0342 36.316C14.7702 36.868 14.4702 37.216 14.1342 37.36C13.8222 37.504 13.3662 37.444 12.7662 37.18C12.4062 37.036 12.1422 36.856 11.9742 36.64C11.8302 36.424 11.7702 36.16 11.7942 35.848C11.8422 35.536 11.9622 35.176 12.1542 34.768L22.4862 13.204C22.6302 12.916 22.8342 12.688 23.0982 12.52C23.3862 12.328 23.6862 12.232 23.9982 12.232C24.2142 12.232 24.4182 12.268 24.6102 12.34C24.8022 12.412 24.9702 12.52 25.1142 12.664C25.2582 12.808 25.3782 13 25.4742 13.24L35.9142 35.056ZM17.1942 30.196L18.4182 27.424H29.5782L30.7662 30.196H17.1942Z" fill="white"/>
</svg>
