<svg width="48" height="48" viewBox="0 0 48 48" fill="none" xmlns="http://www.w3.org/2000/svg">
<rect width="48" height="48" rx="24" fill="#386641"/>
<path d="M26.8581 37.432C25.5621 37.432 24.3021 37.24 23.0781 36.856C21.8541 36.472 20.7141 35.92 19.6581 35.2C18.6021 34.48 17.6661 33.592 16.8501 32.536C16.0581 31.456 15.4341 30.256 14.9781 28.936C14.5221 27.592 14.2941 26.116 14.2941 24.508C14.2941 22.972 14.5221 21.556 14.9781 20.26C15.4341 18.94 16.0581 17.776 16.8501 16.768C17.6421 15.76 18.5661 14.908 19.6221 14.212C20.7021 13.492 21.8541 12.952 23.0781 12.592C24.3261 12.208 25.5981 12.016 26.8941 12.016C28.0941 12.016 29.1261 12.136 29.9901 12.376C30.8541 12.616 31.5621 12.88 32.1141 13.168C32.6661 13.432 33.0381 13.636 33.2301 13.78C33.5661 13.972 33.8901 14.2 34.2021 14.464C34.5141 14.728 34.6821 15.04 34.7061 15.4C34.7541 15.664 34.7301 15.88 34.6341 16.048C34.5621 16.216 34.4661 16.396 34.3461 16.588C34.1541 16.876 33.9501 17.092 33.7341 17.236C33.5421 17.356 33.3261 17.416 33.0861 17.416C32.8461 17.416 32.6301 17.344 32.4381 17.2C32.2461 17.056 31.9941 16.888 31.6821 16.696C31.5381 16.6 31.2501 16.444 30.8181 16.228C30.3861 16.012 29.8341 15.808 29.1621 15.616C28.4901 15.4 27.6741 15.292 26.7141 15.292C25.4901 15.292 24.3141 15.52 23.1861 15.976C22.0821 16.408 21.1101 17.032 20.2701 17.848C19.4301 18.664 18.7701 19.648 18.2901 20.8C17.8101 21.952 17.5701 23.248 17.5701 24.688C17.5701 26.152 17.8101 27.472 18.2901 28.648C18.7701 29.8 19.4301 30.784 20.2701 31.6C21.1341 32.416 22.1181 33.04 23.2221 33.472C24.3261 33.904 25.4901 34.12 26.7141 34.12C27.6261 34.12 28.4181 34.024 29.0901 33.832C29.7861 33.64 30.3501 33.436 30.7821 33.22C31.2381 32.98 31.5501 32.8 31.7181 32.68C31.9821 32.536 32.2101 32.392 32.4021 32.248C32.6181 32.104 32.8461 32.032 33.0861 32.032C33.3261 32.032 33.5421 32.104 33.7341 32.248C33.9501 32.368 34.1541 32.572 34.3461 32.86C34.4661 33.028 34.5621 33.22 34.6341 33.436C34.7301 33.628 34.7541 33.844 34.7061 34.084C34.6821 34.444 34.5141 34.756 34.2021 35.02C33.8901 35.26 33.5661 35.488 33.2301 35.704C33.0141 35.8 32.6301 36.004 32.0781 36.316C31.5501 36.604 30.8541 36.856 29.9901 37.072C29.1261 37.312 28.0821 37.432 26.8581 37.432Z" fill="white"/>
</svg>
