<svg width="48" height="48" viewBox="0 0 48 48" fill="none" xmlns="http://www.w3.org/2000/svg">
<rect width="48" height="48" rx="24" fill="#312244"/>
<path d="M18.4949 37.36C18.0149 37.36 17.6549 37.288 17.4149 37.144C17.1749 37.024 17.0069 36.844 16.9109 36.604C16.8389 36.364 16.8029 36.076 16.8029 35.74V13.888C16.8029 13.528 16.8389 13.228 16.9109 12.988C16.9829 12.748 17.1269 12.568 17.3429 12.448C17.5829 12.304 17.9429 12.232 18.4229 12.232C18.9029 12.232 19.2509 12.304 19.4669 12.448C19.7069 12.568 19.8629 12.748 19.9349 12.988C20.0069 13.228 20.0429 13.516 20.0429 13.852V34.336H32.1029C32.4149 34.336 32.6789 34.372 32.8949 34.444C33.1109 34.516 33.2789 34.66 33.3989 34.876C33.5429 35.092 33.6149 35.416 33.6149 35.848C33.6149 36.256 33.5549 36.58 33.4349 36.82C33.3149 37.036 33.1469 37.18 32.9309 37.252C32.7149 37.324 32.4509 37.36 32.1389 37.36H18.4949Z" fill="white"/>
</svg>
