<svg width="48" height="48" viewBox="0 0 48 48" fill="none" xmlns="http://www.w3.org/2000/svg">
<rect width="48" height="48" rx="24" fill="#9D4EDD"/>
<path d="M13.2505 37.36C12.8185 37.36 12.4825 37.288 12.2425 37.144C12.0265 37 11.8705 36.808 11.7745 36.568C11.6785 36.304 11.6305 36.016 11.6305 35.704V13.816C11.6305 13.504 11.6785 13.24 11.7745 13.024C11.8705 12.784 12.0385 12.592 12.2785 12.448C12.5185 12.304 12.8665 12.232 13.3225 12.232C13.6825 12.232 13.9705 12.256 14.1865 12.304C14.4025 12.352 14.5705 12.424 14.6905 12.52C14.8345 12.592 14.9785 12.712 15.1225 12.88L24.5185 26.488H23.4025L32.9065 12.772C33.0505 12.604 33.1945 12.484 33.3385 12.412C33.4825 12.34 33.6625 12.292 33.8785 12.268C34.1185 12.244 34.3945 12.232 34.7065 12.232C35.1625 12.232 35.4985 12.304 35.7145 12.448C35.9545 12.592 36.1225 12.796 36.2185 13.06C36.3145 13.3 36.3625 13.576 36.3625 13.888V35.776C36.3625 36.064 36.3145 36.328 36.2185 36.568C36.1225 36.808 35.9545 37 35.7145 37.144C35.4745 37.288 35.1265 37.36 34.6705 37.36C34.2385 37.36 33.9025 37.288 33.6625 37.144C33.4465 37 33.2905 36.808 33.1945 36.568C33.1225 36.304 33.0865 36.016 33.0865 35.704V17.632L25.3825 28.972C25.3105 29.092 25.2145 29.212 25.0945 29.332C24.9745 29.428 24.8185 29.512 24.6265 29.584C24.4585 29.656 24.2425 29.692 23.9785 29.692C23.6905 29.692 23.4625 29.656 23.2945 29.584C23.1505 29.512 23.0185 29.428 22.8985 29.332C22.7785 29.212 22.6585 29.08 22.5385 28.936L14.8705 17.668V35.776C14.8705 36.064 14.8225 36.328 14.7265 36.568C14.6545 36.808 14.4985 37 14.2585 37.144C14.0425 37.288 13.7065 37.36 13.2505 37.36Z" fill="white"/>
</svg>
